<svg width="60" height="44" viewBox="0 0 60 44" fill="none" xmlns="http://www.w3.org/2000/svg">
<g id="LOGO">
<path id="Vector 4" d="M0.0247803 14.7417L2.11754 16.4856L4.5591 15.788L2.81513 14.7417L11.1862 2.53389H47.1119L55.8317 14.3929L54.0878 16.1368C54.7854 16.6019 56.1805 17.4623 56.1805 17.1832C56.1805 16.9042 57.8082 15.6718 58.6221 15.0905L48.1583 0.441132H10.1398L0.0247803 14.7417Z" fill="#0A0E10"/>
<path id="Vector 3" d="M37.3333 14.4943C32.6234 15.4363 22.2222 15.6718 17.6104 15.6718C18.0029 15.868 19.5533 16.2605 22.6147 16.2605C26.4416 16.2605 36.1558 15.6718 39.0995 15.3774C42.0433 15.0831 48.2251 15.0831 53.2294 16.5549C57.2329 17.7324 59.4112 20.7742 60 22.148C59.0187 21.363 56.7619 19.8519 55.5844 20.0874C54.4069 20.3229 52.15 19.793 51.1688 19.4986C50.1876 19.008 48.3428 17.9679 48.8138 17.7324C49.4026 17.438 50.8744 17.7324 52.935 18.0268C51.522 16.8493 46.0663 16.3587 43.5151 16.2605C40.0808 16.3587 32.2112 16.6138 28.2078 16.8493C23.2035 17.1437 18.7879 17.438 11.4286 16.2605C24.6753 7.42938 34.3896 13.6112 37.3333 14.4943Z" fill="#0A0E10"/>
<path id="Vector 2" d="M21.7317 35.9835L29.3853 43.3428L37.039 35.9835L43.5152 34.2172H36.1559L29.3853 40.6934L22.3204 34.2172H15.2555L21.7317 35.9835Z" fill="#0A0E10"/>
<g id="DIAMOND">
<path d="M8.53904 27.1523C8.53904 28.3267 8.22505 29.2247 7.59705 29.8464C6.97534 30.4681 6.08673 30.779 4.93122 30.779C4.25927 30.779 3.63128 30.7319 3.04724 30.6377V23.8553C3.63128 23.7611 4.25927 23.7141 4.93122 23.7141C6.08045 23.7141 6.96906 24.0155 7.59705 24.6184C8.22505 25.215 8.53904 26.0596 8.53904 27.1523ZM7.2862 27.1523C7.2862 25.5635 6.52319 24.7691 4.99716 24.7691C4.75852 24.7691 4.54187 24.7879 4.34719 24.8256V29.6674C4.54187 29.7051 4.75852 29.7239 4.99716 29.7239C5.76331 29.7239 6.33479 29.5136 6.71158 29.0928C7.09466 28.6721 7.2862 28.0252 7.2862 27.1523Z" fill="#0A0E10"/>
<path d="M11.1605 30.6848V23.8082H12.6017V30.6848H11.1605Z" fill="#0A0E10"/>
<path d="M15.1695 30.6848L17.5527 23.8082H18.9657L21.3584 30.6848H19.9454L19.4555 29.0269H17.0346L16.5354 30.6848H15.1695ZM17.3266 28.0189H19.1541L18.2498 24.9669H18.2309L17.3266 28.0189Z" fill="#0A0E10"/>
<path d="M29.2319 26.0408H29.2131L27.7059 28.9609H26.519L25.0118 26.0408H24.993V30.6848H23.7401V23.8082H25.0589L27.103 27.8588H27.1219L29.166 23.8082H30.5224V30.6848H29.2319V26.0408Z" fill="#0A0E10"/>
<path d="M33.8847 24.6749C34.5127 24.0343 35.3479 23.7141 36.3904 23.7141C37.4328 23.7141 38.2649 24.0343 38.8867 24.6749C39.5146 25.3092 39.8286 26.1664 39.8286 27.2465C39.8286 28.3267 39.5146 29.187 38.8867 29.8276C38.2649 30.4618 37.4328 30.779 36.3904 30.779C35.3479 30.779 34.5127 30.4618 33.8847 29.8276C33.263 29.187 32.9521 28.3267 32.9521 27.2465C32.9521 26.1664 33.263 25.3092 33.8847 24.6749ZM34.8644 29.0551C35.2411 29.4822 35.7498 29.6957 36.3904 29.6957C37.0309 29.6957 37.5396 29.4822 37.9164 29.0551C38.2932 28.6218 38.4816 28.0189 38.4816 27.2465C38.4816 26.4741 38.2932 25.8743 37.9164 25.4473C37.5396 25.014 37.0309 24.7973 36.3904 24.7973C35.7498 24.7973 35.2411 25.014 34.8644 25.4473C34.4876 25.8743 34.2992 26.4741 34.2992 27.2465C34.2992 28.0189 34.4876 28.6218 34.8644 29.0551Z" fill="#0A0E10"/>
<path d="M42.2576 30.6848V23.8082H43.5481L46.3835 28.4899H46.4023V23.8082H47.6929V30.6848H46.4023L43.5669 26.0031H43.5481V30.6848H42.2576Z" fill="#0A0E10"/>
<path d="M56.0422 27.1523C56.0422 28.3267 55.7282 29.2247 55.1002 29.8464C54.4785 30.4681 53.5899 30.779 52.4344 30.779C51.7624 30.779 51.1344 30.7319 50.5504 30.6377V23.8553C51.1344 23.7611 51.7624 23.7141 52.4344 23.7141C53.5836 23.7141 54.4722 24.0155 55.1002 24.6184C55.7282 25.215 56.0422 26.0596 56.0422 27.1523ZM54.7894 27.1523C54.7894 25.5635 54.0263 24.7691 52.5003 24.7691C52.2617 24.7691 52.045 24.7879 51.8503 24.8256V29.6674C52.045 29.7051 52.2617 29.7239 52.5003 29.7239C53.2665 29.7239 53.8379 29.5136 54.2147 29.0928C54.5978 28.6721 54.7894 28.0252 54.7894 27.1523Z" fill="#0A0E10"/>
</g>
</g>
</svg>
