<svg width="218" height="248" viewBox="0 0 218 248" fill="none" xmlns="http://www.w3.org/2000/svg">
<path fill-rule="evenodd" clip-rule="evenodd" d="M79.3053 239.348L34.6043 72.5215L13.286 62.2089L36.4799 148.77L29.3976 150.667L4.72772 58.5982L-1.2589 55.1418L-4 44.9119L31.8632 62.2916L28.7004 50.4879L44.4388 46.2708L57.3009 94.2727L184.488 77.9048L186.175 84.2001L58.7768 99.7811L59.6202 102.929L187.018 87.3478L188.494 92.8562L141.377 99.5773L146.931 136.043C149.596 141.795 154.74 153.855 153.987 156.081C153.234 158.307 150.422 159.566 149.111 159.918L121.569 167.298L125.364 181.462L206.417 159.744L207.893 165.253L85.1335 198.146L86.1878 202.08L208.947 169.187L210.212 173.909L87.4529 206.802L95.0437 235.131L79.3053 239.348ZM90.6633 155.83L74.9249 160.047L83.6576 192.637L99.6981 188.339L90.6633 155.83ZM88.4315 147.501L72.6932 151.718L61.0962 108.437L77.0454 105.007L88.4315 147.501ZM108.052 186.101L116.708 183.781L95.201 103.516L86.9101 104.051L108.052 186.101ZM103.492 102.981L131.877 98.749L141.001 135.945L115.032 142.903L103.492 102.981ZM141.813 142.124L116.632 148.871L119.671 160.215L145.639 153.257L141.813 142.124Z" fill="url(#paint0_linear_5_44)"/>
<path fill-rule="evenodd" clip-rule="evenodd" d="M72.5 110.125C76.7342 108.208 80.1667 104.776 80.1667 100.542C80.1667 96.3075 76.7342 92.875 72.5 92.875C68.2659 92.875 64.8334 96.3075 64.8334 100.542C64.8334 104.776 68.2659 108.208 72.5 110.125ZM72.5 103.417C74.0879 103.417 75.375 102.13 75.375 100.542C75.375 98.9539 74.0879 97.6667 72.5 97.6667C70.9122 97.6667 69.625 98.9539 69.625 100.542C69.625 102.13 70.9122 103.417 72.5 103.417Z" fill="#F2BD53"/>
<path d="M72.5 103.417C74.0879 103.417 75.375 102.13 75.375 100.542C75.375 98.9538 74.0879 97.6667 72.5 97.6667C70.9121 97.6667 69.625 98.9538 69.625 100.542C69.625 102.13 70.9121 103.417 72.5 103.417Z" stroke="black" stroke-linecap="round" stroke-linejoin="round"/>
<path d="M72.5 110.125C76.7342 108.208 80.1667 104.776 80.1667 100.542C80.1667 96.3075 76.7342 92.875 72.5 92.875C68.2659 92.875 64.8334 96.3075 64.8334 100.542C64.8334 104.776 68.2659 108.208 72.5 110.125Z" stroke="black" stroke-linecap="round" stroke-linejoin="round"/>
<path d="M100.278 82.7823C100.27 82.884 100.301 82.9676 100.369 83.0329C100.445 83.0975 100.532 83.1235 100.631 83.1112L102.03 82.937L101.894 81.8454C101.881 81.7396 101.83 81.6552 101.742 81.5923C101.66 81.5286 101.566 81.5033 101.46 81.5165L100.349 81.6549L100.278 82.7823ZM100.921 84.3852C100.676 84.4156 100.445 84.394 100.227 84.3203C100.009 84.24 99.8201 84.1258 99.6606 83.9777C99.5003 83.823 99.373 83.6373 99.2789 83.4206C99.1913 83.2031 99.1559 82.9724 99.1726 82.7284L99.2276 81.7945L98.7414 81.855C98.609 81.8715 98.5023 81.9318 98.4213 82.0359C98.3402 82.1401 98.3079 82.2583 98.3243 82.3906L98.9247 87.2134L97.8332 87.3493L97.2402 82.5861C97.2097 82.3413 97.2276 82.1073 97.2939 81.8841C97.3593 81.6542 97.4615 81.45 97.6005 81.2715C97.7453 81.0855 97.9178 80.933 98.118 80.8141C98.3248 80.6943 98.5505 80.6191 98.7953 80.5886L101.147 80.2959C101.372 80.2679 101.589 80.2845 101.798 80.3458C102.008 80.4071 102.194 80.5048 102.359 80.6388C102.529 80.7654 102.67 80.9226 102.78 81.1104C102.89 81.2915 102.959 81.4945 102.987 81.7195L103.061 82.3149C103.078 82.4472 103.138 82.5572 103.243 82.6449C103.348 82.726 103.466 82.7583 103.598 82.7418L104.124 82.6763C104.217 82.6648 104.269 82.7054 104.28 82.798L104.406 83.8102C104.418 83.9028 104.377 83.9549 104.285 83.9664L103.937 84.0096C103.745 84.0335 103.557 84.0268 103.371 83.9895C103.19 83.9448 103.018 83.8554 102.853 83.7213C102.76 83.8875 102.648 84.0123 102.517 84.0957C102.386 84.1726 102.237 84.2213 102.072 84.2419L100.921 84.3852ZM104.006 82.8423C104.001 82.8092 104.014 82.774 104.043 82.7368C104.065 82.7005 104.093 82.6802 104.126 82.6761L105.902 82.455C106.18 82.4204 106.449 82.3432 106.71 82.2234C106.969 82.0971 107.183 81.9194 107.349 81.6904L107.848 81.0035C107.877 80.9663 107.903 80.9328 107.926 80.9031C107.949 80.8733 107.964 80.858 107.971 80.8572L105.809 80.4915C105.74 80.4799 105.682 80.4939 105.633 80.5335C105.59 80.5658 105.559 80.6133 105.54 80.6761L105.286 81.7154L104.301 81.576L104.446 80.6309C104.48 80.4184 104.551 80.2316 104.658 80.0704C104.772 79.9084 104.904 79.7778 105.053 79.6787C105.207 79.5721 105.377 79.5006 105.56 79.4643C105.743 79.4214 105.924 79.4157 106.102 79.4472L110.199 80.1364L109.998 81.1993L109.515 81.1185C109.352 81.1051 109.223 81.1245 109.129 81.1766C109.04 81.2212 108.953 81.2993 108.866 81.4109L107.866 82.6842C107.617 83.0041 107.312 83.2536 106.951 83.4329C106.59 83.6122 106.212 83.7265 105.815 83.7759L104.287 83.9662C104.194 83.9777 104.142 83.9371 104.13 83.8445L104.006 82.8423ZM107.317 85.9671L108.458 85.825L108.316 84.6839L107.175 84.8259L107.317 85.9671Z" fill="#183B4D"/>
<path d="M115.128 84.38C114.883 84.4105 114.645 84.393 114.416 84.3276C114.192 84.2613 113.992 84.1587 113.813 84.0197C113.634 83.8807 113.485 83.7078 113.365 83.501C113.246 83.3008 113.172 83.0784 113.141 82.8336L112.839 80.4023L113.156 80.3628L113.449 82.7147C113.474 82.9131 113.534 83.0971 113.629 83.2667C113.731 83.4421 113.857 83.5877 114.005 83.7035C114.154 83.8193 114.323 83.9058 114.511 83.963C114.7 84.0201 114.897 84.0359 115.102 84.0104L116.779 83.8016C116.951 83.7802 117.109 83.727 117.253 83.6419C117.403 83.5559 117.528 83.4497 117.626 83.3233C117.725 83.1968 117.797 83.0501 117.843 82.8831C117.891 82.7227 117.904 82.5565 117.882 82.3845L117.541 79.6456L117.849 79.6073L118.197 82.4057C118.224 82.624 118.207 82.8345 118.145 83.037C118.089 83.2388 117.997 83.4181 117.869 83.5752C117.748 83.7314 117.596 83.8612 117.414 83.9644C117.239 84.0735 117.046 84.1412 116.834 84.1676L115.128 84.38ZM114.978 79.3702L115.553 79.2986L115.625 79.8741L115.049 79.9458L114.978 79.3702ZM121.151 81.8666C120.973 81.8889 120.8 81.8768 120.633 81.8304C120.465 81.7774 120.315 81.7021 120.181 81.6044C120.048 81.5002 119.934 81.3732 119.842 81.2235C119.756 81.0729 119.702 80.9084 119.68 80.7297L119.058 75.7383L119.366 75.7L119.988 80.7014C120.004 80.8271 120.042 80.9433 120.102 81.05C120.169 81.1558 120.248 81.2468 120.338 81.323C120.434 81.3916 120.541 81.4454 120.66 81.4844C120.785 81.5159 120.91 81.5238 121.036 81.5081L121.552 81.4439C121.592 81.4389 121.627 81.4514 121.658 81.4811C121.687 81.5043 121.705 81.5357 121.71 81.5754L121.719 81.6548C121.731 81.7474 121.69 81.7995 121.598 81.8111L121.151 81.8666ZM121.922 83.5543L121.852 82.9887L122.427 82.9171L122.498 83.4827L121.922 83.5543ZM121.594 81.8115C121.502 81.823 121.45 81.7825 121.438 81.6899L121.428 81.6105C121.423 81.5708 121.432 81.5327 121.454 81.4964C121.477 81.4666 121.509 81.4493 121.549 81.4443L122.303 81.3504C122.435 81.334 122.555 81.2956 122.661 81.2353C122.767 81.1683 122.855 81.0902 122.924 81.001C123 80.9043 123.053 80.7968 123.086 80.6786C123.125 80.5595 123.136 80.4371 123.121 80.3114L122.919 78.6939L123.227 78.6556L123.428 80.2731C123.451 80.4518 123.438 80.6246 123.392 80.7916C123.345 80.952 123.269 81.0991 123.165 81.233C123.06 81.3603 122.932 81.4702 122.783 81.5628C122.639 81.6479 122.477 81.7015 122.299 81.7238L121.594 81.8115ZM126.491 81.2019C126.312 81.2241 126.139 81.2121 125.972 81.1657C125.805 81.1127 125.654 81.0373 125.521 80.9397C125.387 80.8354 125.274 80.7085 125.181 80.5587C125.095 80.4082 125.041 80.2436 125.019 80.065L124.398 75.0735L124.705 75.0352L125.328 80.0366C125.344 80.1623 125.382 80.2785 125.442 80.3852C125.509 80.4911 125.587 80.5821 125.677 80.6582C125.773 80.7269 125.881 80.7807 126 80.8196C126.125 80.8511 126.25 80.859 126.376 80.8434L126.892 80.7791C126.931 80.7742 126.967 80.7866 126.997 80.8164C127.027 80.8396 127.044 80.871 127.049 80.9107L127.059 80.9901C127.071 81.0827 127.03 81.1348 126.937 81.1463L126.491 81.2019ZM126.934 81.1467C126.841 81.1583 126.789 81.1177 126.778 81.0251L126.765 80.9259C126.755 80.8399 126.796 80.7911 126.888 80.7796L127.325 80.7252C127.57 80.6948 127.775 80.5919 127.941 80.4167C128.108 80.2415 128.2 80.0352 128.217 79.7979L128.315 78.3951L128.628 78.4064L128.542 79.576C128.536 79.6306 128.535 79.681 128.541 79.7274C128.55 79.8001 128.577 79.8841 128.623 79.9792C128.667 80.0677 128.738 80.1529 128.836 80.2348C128.933 80.3167 129.045 80.3767 129.171 80.4148C129.296 80.4529 129.429 80.4633 129.568 80.446L130.054 80.3855C130.146 80.374 130.198 80.4112 130.209 80.4972L130.221 80.5964C130.233 80.6891 130.192 80.7411 130.1 80.7527L129.603 80.8144C129.372 80.8433 129.142 80.808 128.915 80.7087C128.687 80.6027 128.533 80.4439 128.453 80.2321C128.347 80.4669 128.207 80.6624 128.032 80.8186C127.856 80.9682 127.652 81.0574 127.42 81.0862L126.934 81.1467ZM127.866 82.24L128.442 82.1683L128.513 82.7439L127.938 82.8155L127.866 82.24ZM129.595 82.6092L129.029 82.6796L128.958 82.1041L129.523 82.0337L129.595 82.6092ZM130.057 80.3851L131.526 80.2022C132.232 80.1009 132.825 79.7919 133.305 79.2754L134.344 78.1484C134.373 78.1178 134.403 78.0839 134.432 78.0467C134.467 78.0087 134.506 77.9703 134.548 77.9314L131.811 77.4761C131.757 77.4695 131.703 77.4694 131.65 77.476C131.617 77.4801 131.568 77.4929 131.504 77.5144C131.445 77.5284 131.379 77.5635 131.305 77.6197C131.238 77.6751 131.179 77.7429 131.129 77.8231C131.085 77.9024 131.055 77.9868 131.039 78.076L130.926 78.7048L130.679 78.665L130.794 77.9655C130.829 77.7597 130.921 77.5803 131.07 77.4274C131.225 77.2736 131.412 77.1832 131.63 77.156C131.73 77.1437 131.824 77.1454 131.913 77.1611L135.774 77.8192L135.727 78.0871L135.376 78.0199C135.259 78.0008 135.168 77.9954 135.102 78.0037C134.963 78.021 134.846 78.0792 134.75 78.1784C134.655 78.2709 134.53 78.4007 134.376 78.5677L133.337 79.6946C133.112 79.9376 132.858 80.1339 132.574 80.2834C132.296 80.4255 131.995 80.5167 131.671 80.5571L130.103 80.7522C130.01 80.7638 129.958 80.7232 129.947 80.6306L129.934 80.5314C129.924 80.4454 129.965 80.3966 130.057 80.3851ZM131.513 75.1652L131.585 75.7407L131.019 75.8112L130.948 75.2356L131.513 75.1652Z" fill="black"/>
<path d="M139.22 174.824L138.159 175.112L136.367 168.5L137.429 168.212L139.22 174.824ZM139.197 177.472L138.599 176.567L139.866 175.737C140.088 175.587 140.242 175.39 140.328 175.146C140.42 174.9 140.432 174.651 140.364 174.4L139.46 171.061L140.521 170.773L141.397 174.006C141.465 174.257 141.492 174.509 141.478 174.762C141.465 175.021 141.414 175.266 141.325 175.497C141.242 175.727 141.12 175.939 140.959 176.135C140.806 176.335 140.622 176.51 140.406 176.658L139.197 177.472ZM147.142 171.331L147.412 171.258C147.444 171.249 147.478 171.257 147.512 171.283C147.551 171.3 147.576 171.327 147.586 171.366L147.85 172.341C147.859 172.373 147.855 172.409 147.838 172.448C147.819 172.481 147.791 172.502 147.752 172.513L147.559 172.565C147.302 172.635 147.059 172.645 146.832 172.596C146.604 172.547 146.409 172.476 146.245 172.382C146.131 172.572 145.981 172.744 145.795 172.898C145.613 173.044 145.4 173.15 145.156 173.216L143.891 173.559C143.717 173.606 143.545 173.618 143.373 173.595C143.199 173.567 143.039 173.51 142.892 173.425C142.744 173.341 142.614 173.231 142.502 173.096C142.394 172.952 142.316 172.794 142.269 172.62L141.929 171.365L142.837 171.119L143.124 172.181C143.142 172.246 143.179 172.294 143.236 172.327C143.292 172.353 143.349 172.359 143.406 172.343L144.825 171.959C144.922 171.933 145.007 171.889 145.08 171.828C145.158 171.758 145.217 171.683 145.257 171.603C145.296 171.517 145.314 171.429 145.31 171.34C145.312 171.243 145.287 171.153 145.237 171.07L143.709 168.49L144.614 167.851L146.548 171.088C146.609 171.189 146.695 171.262 146.804 171.309C146.913 171.355 147.026 171.362 147.142 171.331ZM153.134 169.708C153.262 169.673 153.36 169.598 153.425 169.484C153.489 169.363 153.504 169.238 153.469 169.109L153.336 168.617C153.301 168.488 153.226 168.391 153.112 168.325C152.997 168.26 152.875 168.244 152.747 168.279L151.926 168.502C151.592 168.592 151.345 168.79 151.186 169.096L150.489 170.424L153.134 169.708ZM149.198 169.79C149.244 169.957 149.289 170.062 149.335 170.105C149.388 170.146 149.415 170.17 149.417 170.176L150.359 168.377C150.504 168.096 150.699 167.86 150.945 167.669C151.188 167.472 151.461 167.333 151.764 167.251L152.362 167.088C152.581 167.029 152.798 167.015 153.014 167.047C153.229 167.078 153.428 167.148 153.61 167.258C153.79 167.361 153.948 167.498 154.084 167.668C154.218 167.832 154.314 168.024 154.374 168.243L154.531 168.822C154.595 169.06 154.611 169.297 154.579 169.534C154.544 169.764 154.472 169.981 154.361 170.183C154.248 170.38 154.098 170.552 153.91 170.699C153.729 170.845 153.519 170.95 153.281 171.015L150.424 171.789C150.192 171.852 149.964 171.865 149.74 171.829C149.516 171.793 149.303 171.695 149.101 171.536C149.001 171.777 148.86 171.971 148.679 172.117C148.497 172.262 148.291 172.367 148.059 172.43L147.75 172.513C147.711 172.524 147.676 172.519 147.643 172.501C147.609 172.476 147.587 172.447 147.578 172.415L147.317 171.449C147.306 171.411 147.313 171.371 147.336 171.33C147.353 171.291 147.378 171.267 147.41 171.258L147.922 171.12C148.05 171.085 148.148 171.01 148.213 170.896C148.279 170.781 148.294 170.66 148.259 170.531L147.831 168.948L148.892 168.66L149.198 169.79Z" fill="#183B4D"/>
<path d="M159.664 171.099C159.426 171.163 159.188 171.179 158.951 171.147C158.721 171.112 158.508 171.039 158.312 170.926C158.115 170.814 157.943 170.663 157.796 170.475C157.65 170.294 157.545 170.084 157.48 169.846L156.839 167.481L157.148 167.398L157.768 169.685C157.82 169.878 157.905 170.052 158.023 170.207C158.149 170.366 158.294 170.492 158.458 170.586C158.621 170.68 158.8 170.742 158.995 170.772C159.19 170.802 159.387 170.79 159.586 170.736L161.217 170.294C161.385 170.249 161.534 170.174 161.664 170.07C161.801 169.964 161.91 169.841 161.989 169.702C162.069 169.563 162.12 169.407 162.143 169.236C162.167 169.07 162.156 168.904 162.111 168.736L161.389 166.073L161.689 165.991L162.426 168.713C162.484 168.926 162.496 169.136 162.463 169.346C162.436 169.553 162.37 169.744 162.265 169.917C162.167 170.089 162.035 170.239 161.869 170.367C161.711 170.499 161.53 170.593 161.324 170.649L159.664 171.099ZM158.812 166.159L159.372 166.008L159.524 166.568L158.964 166.719L158.812 166.159ZM165.275 167.765C165.102 167.812 164.929 167.825 164.757 167.802C164.583 167.773 164.424 167.72 164.278 167.642C164.131 167.557 164.001 167.447 163.889 167.312C163.782 167.175 163.706 167.02 163.659 166.846L162.343 161.991L162.643 161.91L163.96 166.775C163.994 166.897 164.048 167.007 164.122 167.104C164.203 167.199 164.294 167.278 164.394 167.341C164.498 167.396 164.612 167.434 164.736 167.456C164.864 167.469 164.989 167.46 165.111 167.426L165.613 167.29C165.651 167.28 165.688 167.287 165.722 167.313C165.755 167.331 165.777 167.36 165.787 167.399L165.808 167.476C165.833 167.566 165.8 167.623 165.71 167.648L165.275 167.765ZM166.275 169.328L166.126 168.778L166.686 168.626L166.835 169.177L166.275 169.328ZM165.706 167.649C165.616 167.673 165.559 167.64 165.535 167.55L165.514 167.473C165.503 167.434 165.506 167.395 165.523 167.356C165.542 167.323 165.571 167.302 165.609 167.291L166.343 167.093C166.472 167.058 166.585 167.003 166.682 166.928C166.777 166.847 166.853 166.758 166.909 166.659C166.97 166.553 167.009 166.439 167.024 166.318C167.046 166.194 167.04 166.071 167.007 165.949L166.581 164.376L166.88 164.295L167.306 165.868C167.353 166.042 167.366 166.215 167.343 166.387C167.319 166.552 167.265 166.708 167.18 166.856C167.094 166.996 166.983 167.123 166.848 167.236C166.717 167.34 166.565 167.416 166.392 167.463L165.706 167.649ZM170.469 166.358C170.295 166.405 170.122 166.418 169.951 166.395C169.777 166.366 169.617 166.313 169.472 166.235C169.325 166.15 169.195 166.04 169.082 165.905C168.976 165.768 168.899 165.613 168.852 165.439L167.537 160.584L167.836 160.503L169.154 165.368C169.187 165.49 169.241 165.6 169.316 165.697C169.397 165.792 169.487 165.871 169.587 165.934C169.692 165.989 169.806 166.027 169.929 166.049C170.057 166.062 170.182 166.053 170.305 166.019L170.807 165.883C170.845 165.873 170.882 165.88 170.916 165.906C170.949 165.924 170.97 165.953 170.981 165.992L171.002 166.069C171.026 166.159 170.993 166.216 170.903 166.241L170.469 166.358ZM170.9 166.241C170.81 166.266 170.753 166.233 170.728 166.143L170.702 166.046C170.679 165.963 170.713 165.909 170.803 165.884L171.228 165.769C171.466 165.705 171.655 165.574 171.795 165.377C171.935 165.181 171.997 164.963 171.981 164.726L171.881 163.323L172.193 163.291L172.272 164.461C172.273 164.516 172.28 164.566 172.292 164.611C172.311 164.682 172.35 164.761 172.408 164.849C172.465 164.93 172.547 165.004 172.655 165.072C172.763 165.139 172.882 165.183 173.012 165.203C173.142 165.223 173.274 165.215 173.409 165.178L173.882 165.05C173.972 165.026 174.029 165.055 174.051 165.139L174.077 165.236C174.102 165.326 174.069 165.383 173.979 165.407L173.496 165.538C173.271 165.599 173.039 165.596 172.8 165.53C172.559 165.457 172.384 165.321 172.275 165.123C172.204 165.37 172.093 165.583 171.941 165.763C171.787 165.935 171.598 166.052 171.373 166.113L170.9 166.241ZM171.976 167.193L172.536 167.041L172.688 167.601L172.128 167.753L171.976 167.193ZM173.74 167.316L173.19 167.465L173.038 166.905L173.588 166.756L173.74 167.316ZM173.885 165.049L175.314 164.662C175.999 164.463 176.543 164.074 176.945 163.495L177.816 162.234C177.841 162.199 177.865 162.161 177.889 162.121C177.919 162.078 177.952 162.034 177.988 161.99L175.214 161.923C175.159 161.924 175.106 161.932 175.054 161.946C175.022 161.954 174.976 161.974 174.915 162.004C174.859 162.026 174.798 162.07 174.733 162.136C174.675 162.2 174.626 162.276 174.587 162.362C174.555 162.447 174.537 162.535 174.534 162.625L174.51 163.264L174.26 163.259L174.275 162.55C174.281 162.342 174.347 162.151 174.473 161.979C174.605 161.805 174.778 161.689 174.99 161.632C175.087 161.605 175.18 161.594 175.271 161.597L179.186 161.707L179.177 161.979L178.82 161.962C178.702 161.959 178.61 161.967 178.546 161.984C178.411 162.021 178.303 162.095 178.223 162.206C178.141 162.311 178.035 162.457 177.906 162.644L177.036 163.906C176.847 164.178 176.623 164.408 176.363 164.596C176.108 164.775 175.822 164.908 175.507 164.993L173.982 165.406C173.892 165.431 173.835 165.398 173.81 165.308L173.784 165.211C173.762 165.128 173.795 165.074 173.885 165.049ZM174.595 159.677L174.747 160.237L174.197 160.386L174.045 159.826L174.595 159.677Z" fill="black"/>
<path d="M54.4036 165.049L54.5757 165.691C54.413 165.841 54.222 165.994 54.0027 166.149C53.7835 166.304 53.5544 166.45 53.3156 166.587C53.0723 166.724 52.8276 166.848 52.5815 166.957C52.3343 167.062 52.1025 167.144 51.8861 167.202C51.6562 167.263 51.4102 167.31 51.1481 167.341C50.886 167.373 50.6181 167.392 50.3442 167.397C50.0659 167.404 49.7839 167.398 49.4983 167.378C49.2127 167.358 48.9331 167.324 48.6595 167.276L48.4873 166.634C48.696 166.655 48.9413 166.669 49.2233 166.676C49.4995 166.679 49.7859 166.675 50.0822 166.663C50.3786 166.651 50.672 166.628 50.9623 166.594C51.2482 166.561 51.4993 166.515 51.7156 166.457C51.914 166.404 52.1261 166.331 52.3521 166.236C52.5723 166.139 52.7991 166.029 53.0325 165.909C53.2602 165.785 53.49 165.651 53.7219 165.507C53.9571 165.357 54.1844 165.204 54.4036 165.049ZM52.9287 162.925C52.9577 163.033 52.9646 163.14 52.9494 163.246C52.9296 163.352 52.8956 163.451 52.8474 163.541C52.7946 163.633 52.7263 163.711 52.6425 163.777C52.5542 163.844 52.4559 163.892 52.3478 163.921L51.577 164.128L51.4501 163.655L52.106 163.479C52.1736 163.461 52.2268 163.425 52.2655 163.371C52.2997 163.318 52.3065 163.254 52.286 163.177L51.9979 162.102C51.9665 161.985 51.9151 161.892 51.8438 161.824C51.768 161.758 51.6869 161.717 51.6006 161.701C51.5086 161.682 51.4175 161.685 51.3274 161.709C51.2372 161.733 51.1599 161.778 51.0953 161.844L49.8824 163.024L49.4464 162.641L50.6809 161.433C50.849 161.267 51.0374 161.159 51.2459 161.108C51.45 161.058 51.6481 161.058 51.8402 161.108C52.0279 161.159 52.1987 161.256 52.3528 161.398C52.5012 161.537 52.6049 161.717 52.6641 161.938L52.9287 162.925ZM51.6569 158.558C51.72 158.541 51.7601 158.564 51.777 158.627L51.8404 158.864C51.8802 159.013 51.8906 159.16 51.8716 159.305C51.848 159.451 51.7999 159.587 51.7273 159.713C51.6547 159.839 51.5609 159.949 51.4459 160.042C51.3252 160.132 51.1904 160.198 51.0417 160.237L47.6136 161.156L47.4651 160.602L50.8864 159.685C51.0036 159.653 51.0935 159.583 51.1562 159.475C51.2189 159.366 51.2345 159.253 51.2031 159.136L51.1143 158.805C51.1071 158.778 51.1123 158.752 51.13 158.728C51.1432 158.705 51.1634 158.69 51.1904 158.683L51.6569 158.558ZM52.551 158.27L52.3788 157.628L53.0212 157.456L53.1933 158.098L52.551 158.27ZM50.865 157.874C50.8336 157.757 50.7636 157.667 50.655 157.604C50.5464 157.542 50.4335 157.526 50.3163 157.557L49.0181 157.905L48.8695 157.351L50.1677 157.003C50.3165 156.963 50.4663 156.954 50.6172 156.977C50.7625 156.996 50.8979 157.042 51.0237 157.114C51.1494 157.187 51.2597 157.283 51.3545 157.402C51.4482 157.517 51.5155 157.652 51.5566 157.805L51.7776 158.63C51.7849 158.657 51.7819 158.682 51.7687 158.705C51.751 158.729 51.7309 158.744 51.7084 158.75L51.2418 158.875C51.2148 158.882 51.1898 158.879 51.167 158.866C51.1396 158.854 51.1223 158.834 51.115 158.807L50.865 157.874ZM50.9048 155.372L51.0533 155.927L47.0776 156.992L46.929 156.438L50.9048 155.372ZM47.1337 157.905L46.843 157.983C46.6717 158.029 46.522 158.011 46.3938 157.929C46.2611 157.849 46.1737 157.73 46.1314 157.572L45.7763 156.247L46.2631 156.116L46.611 157.414C46.6231 157.459 46.6514 157.493 46.6959 157.515C46.7359 157.538 46.7762 157.544 46.8167 157.533L47.0196 157.479L47.1337 157.905ZM48.7439 153.502L48.7428 154.038L48.1313 154.028C48 154.025 47.8812 153.996 47.775 153.943C47.6631 153.886 47.5691 153.814 47.4929 153.728C47.4168 153.642 47.3597 153.547 47.3217 153.441C47.278 153.332 47.2586 153.223 47.2636 153.116L47.3486 150.404L47.906 150.429L47.9201 150.86C47.922 150.975 47.9604 151.074 48.0354 151.155L48.556 151.016C48.6822 150.982 48.7767 150.911 48.8394 150.802C48.8976 150.695 48.9104 150.58 48.8778 150.458L48.6386 149.566C48.6205 149.498 48.643 149.456 48.7061 149.439L49.1794 149.312C49.2064 149.305 49.232 149.31 49.256 149.328C49.2789 149.341 49.294 149.361 49.3012 149.388L49.515 150.186C49.5549 150.335 49.5653 150.482 49.5462 150.627C49.5214 150.769 49.4738 150.898 49.4033 151.013C49.3283 151.13 49.2349 151.232 49.1232 151.32C49.0058 151.405 48.8749 151.467 48.7307 151.505L48.5211 151.561L49.7758 152.566C49.91 152.67 50.0567 152.739 50.2157 152.774C50.3748 152.809 50.5354 152.804 50.6977 152.761C50.8465 152.721 50.979 152.656 51.0952 152.567C51.2102 152.474 51.304 152.364 51.3766 152.238C51.4492 152.113 51.495 151.977 51.5141 151.832C51.5377 151.685 51.5295 151.538 51.4897 151.389L51.0494 149.746L51.7052 149.57L52.1455 151.213C52.2071 151.443 52.2206 151.674 52.186 151.905C52.1547 152.131 52.083 152.341 51.9708 152.536C51.8619 152.724 51.7181 152.891 51.5395 153.035C51.3653 153.179 51.1632 153.281 50.9334 153.343C50.6719 153.413 50.4128 153.419 50.156 153.363C49.8992 153.306 49.6715 153.195 49.4729 153.031C49.3799 152.955 49.2692 152.866 49.1407 152.765C49.0123 152.664 48.8809 152.562 48.7467 152.457C48.6113 152.349 48.4822 152.246 48.3595 152.148C48.2355 152.046 48.1327 151.96 48.0512 151.89C48.0271 151.872 47.9961 151.847 47.9582 151.814C47.9191 151.776 47.8897 151.747 47.8702 151.729L47.8305 153.203C47.8248 153.272 47.8508 153.333 47.9083 153.385C47.9657 153.437 48.0313 153.466 48.105 153.47L48.7439 153.502ZM48.0345 147.312C48.0176 147.249 48.0407 147.209 48.1038 147.192L48.5771 147.065C48.6402 147.048 48.6802 147.071 48.6971 147.134L48.7786 147.438C48.8221 147.601 48.831 147.76 48.8054 147.917C48.7752 148.075 48.7142 148.217 48.6224 148.343C48.7662 148.41 48.8912 148.507 48.9974 148.633C49.098 148.756 49.17 148.899 49.2135 149.061L49.3005 149.386C49.3174 149.449 49.2943 149.489 49.2312 149.506L48.7579 149.632C48.6948 149.649 48.6548 149.626 48.6378 149.563L48.5237 149.137C48.4911 149.015 48.4205 148.923 48.3119 148.861C48.2033 148.798 48.0904 148.782 47.9732 148.814L44.5519 149.73L44.4033 149.176L47.8517 148.252C47.9664 148.212 48.0513 148.141 48.1062 148.039C48.1611 147.937 48.1728 147.828 48.1414 147.711L48.0345 147.312ZM46.9691 143.336C46.9389 143.223 46.8752 143.139 46.778 143.083C46.6797 143.022 46.5719 143.007 46.4547 143.039L46.0625 143.144C45.9453 143.175 45.8576 143.245 45.7995 143.352C45.7401 143.455 45.7261 143.565 45.7575 143.682L45.8897 144.176C45.926 144.311 45.9862 144.428 46.0705 144.526C46.1503 144.625 46.2467 144.706 46.3599 144.767L47.5163 145.378L46.9691 143.336ZM47.0627 146.173C47.1349 146.154 47.1916 146.132 47.2331 146.106C47.2745 146.08 47.3064 146.055 47.3286 146.03C47.3553 146.003 47.3741 145.974 47.3848 145.942L45.9767 145.203C45.7974 145.111 45.6453 144.985 45.5203 144.826C45.3909 144.667 45.2996 144.489 45.2464 144.29L45.1341 143.871C45.0966 143.731 45.0887 143.593 45.1101 143.457C45.1271 143.322 45.1708 143.197 45.2413 143.081C45.3073 142.967 45.3945 142.869 45.503 142.787C45.6102 142.7 45.7314 142.638 45.8666 142.602L46.3196 142.481C46.4639 142.442 46.6092 142.435 46.7556 142.458C46.8964 142.478 47.0267 142.523 47.1467 142.593C47.2668 142.662 47.373 142.752 47.4654 142.862C47.5533 142.974 47.6166 143.102 47.6553 143.246L48.2006 145.281C48.2453 145.448 48.2528 145.62 48.2229 145.797C48.1919 145.97 48.1145 146.114 47.9908 146.229C48.1616 146.289 48.3018 146.38 48.4114 146.5C48.5209 146.621 48.5974 146.762 48.6409 146.924L48.6971 147.134C48.7043 147.161 48.7014 147.186 48.6882 147.209C48.6705 147.233 48.6503 147.248 48.6278 147.254L48.1613 147.379C48.1342 147.386 48.1093 147.383 48.0864 147.37C48.059 147.358 48.0417 147.339 48.0345 147.312L47.9511 147.001C47.9185 146.879 47.8502 146.786 47.7461 146.722C47.6375 146.659 47.5223 146.644 47.4006 146.677L46.4067 146.943L46.2581 146.389L47.0627 146.173ZM47.8242 140.496C47.5555 140.467 47.2823 140.448 47.0049 140.44C46.7319 140.431 46.4659 140.43 46.2068 140.437C45.9431 140.445 45.6922 140.464 45.4538 140.494C45.211 140.525 44.9904 140.567 44.792 140.62C44.5757 140.678 44.3354 140.764 44.0713 140.879C43.8027 140.994 43.5372 141.121 43.2746 141.259C43.0108 141.392 42.7607 141.532 42.5243 141.677C42.2834 141.824 42.078 141.959 41.908 142.082L41.734 141.433C41.9485 141.259 42.1743 141.092 42.4116 140.932C42.6489 140.772 42.8898 140.625 43.1343 140.492C43.3731 140.356 43.6145 140.238 43.8585 140.139C44.1013 140.035 44.3376 139.952 44.5675 139.891C44.7839 139.833 45.0259 139.79 45.2937 139.761C45.5603 139.728 45.8334 139.711 46.113 139.708C46.3868 139.703 46.6575 139.712 46.9251 139.737C47.1915 139.758 47.4332 139.794 47.6503 139.847L47.8242 140.496ZM46.3165 132.957C46.244 132.687 46.0894 132.483 45.8526 132.347C45.6222 132.208 45.371 132.172 45.0988 132.238L44.7317 132.336L45.2261 134.181L44.2795 134.435L43.3089 130.813C43.2847 130.723 43.3145 130.666 43.3982 130.644L44.084 130.46C44.1742 130.436 44.2313 130.469 44.2555 130.559L44.5298 131.583C44.5474 131.571 44.5715 131.558 44.6019 131.543C44.6371 131.52 44.6805 131.501 44.732 131.487L45.0121 131.412C45.2632 131.345 45.508 131.331 45.7464 131.371C45.9912 131.409 46.2133 131.491 46.4127 131.617C46.6169 131.735 46.7942 131.894 46.9448 132.095C47.1 132.288 47.2113 132.51 47.2786 132.762L47.7212 134.413C47.7954 134.69 47.8106 134.966 47.7667 135.24C47.7292 135.512 47.6445 135.762 47.5125 135.991C47.3805 136.22 47.2068 136.422 46.9915 136.597C46.7744 136.765 46.5274 136.887 46.2505 136.961L43.855 137.603L43.6428 136.811L45.9127 136.202C46.0801 136.158 46.226 136.084 46.3504 135.982C46.4748 135.879 46.5771 135.759 46.6573 135.62C46.7374 135.481 46.7866 135.33 46.8049 135.166C46.8296 135.001 46.8203 134.838 46.7772 134.677L46.3165 132.957ZM42.9511 129.477C42.9062 129.31 42.8062 129.182 42.6511 129.092C42.4959 129.002 42.3346 128.98 42.1672 129.025L40.3126 129.522L40.1004 128.73L41.955 128.233C42.1675 128.176 42.3815 128.163 42.5971 128.195C42.8046 128.223 42.9981 128.288 43.1778 128.392C43.3574 128.495 43.515 128.633 43.6504 128.803C43.7842 128.968 43.8804 129.159 43.9391 129.378L44.2549 130.557C44.2652 130.595 44.261 130.631 44.2421 130.664C44.2168 130.698 44.1881 130.72 44.1559 130.728L43.4894 130.907C43.4507 130.917 43.4151 130.913 43.3824 130.894C43.3433 130.877 43.3186 130.849 43.3083 130.81L42.9511 129.477ZM39.276 129.903L39.0301 128.986L38.1125 129.231L38.3584 130.149L39.276 129.903ZM42.5026 124.559C42.5927 124.534 42.6499 124.567 42.6741 124.658L42.7647 124.996C42.8216 125.208 42.8365 125.418 42.8092 125.626C42.7755 125.835 42.7069 126.029 42.6032 126.209C42.4995 126.388 42.3654 126.545 42.2011 126.679C42.0287 126.808 41.8362 126.901 41.6237 126.958L36.7264 128.27L36.5142 127.478L41.4018 126.168C41.5692 126.124 41.6977 126.024 41.7872 125.868C41.8768 125.713 41.8992 125.552 41.8543 125.385L41.7275 124.911C41.7171 124.873 41.7246 124.836 41.7499 124.802C41.7687 124.769 41.7975 124.748 41.8361 124.737L42.5026 124.559ZM40.3235 123.883C40.5103 123.833 40.6585 123.704 40.7682 123.495C40.8714 123.288 40.9512 123.032 41.0075 122.727C40.8063 122.491 40.6083 122.306 40.4136 122.172C40.2124 122.039 40.0185 121.998 39.8318 122.048L39.571 122.118C39.3327 122.182 39.1555 122.319 39.0394 122.53C38.9168 122.742 38.8875 122.967 38.9513 123.205L38.9901 123.35C39.0523 123.582 39.1886 123.756 39.3992 123.872C39.6033 123.99 39.8245 124.017 40.0628 123.953L40.3235 123.883ZM40.2074 124.763C39.9756 124.826 39.7445 124.839 39.5143 124.804C39.2841 124.769 39.0751 124.698 38.8873 124.589C38.6995 124.481 38.537 124.338 38.3998 124.161C38.2561 123.985 38.155 123.788 38.0963 123.569L38.0601 123.434C37.9997 123.209 37.9878 122.984 38.0245 122.76C38.0547 122.538 38.124 122.333 38.2324 122.145C38.3408 121.958 38.4837 121.795 38.6608 121.658C38.8363 121.514 39.0367 121.412 39.2621 121.352L39.5809 121.266C39.7869 121.211 39.9963 121.207 40.2089 121.253C40.4134 121.295 40.6112 121.377 40.8025 121.498C40.8003 121.464 40.7914 121.418 40.7759 121.36C40.7586 121.296 40.7448 121.244 40.7345 121.206L40.5378 120.472C40.5274 120.433 40.5349 120.397 40.5602 120.362C40.5773 120.323 40.6052 120.298 40.6438 120.288L41.3103 120.109C41.3489 120.099 41.3855 120.106 41.4198 120.132C41.4525 120.151 41.474 120.179 41.4844 120.218L41.7277 121.126C41.7881 121.351 41.8225 121.57 41.8309 121.782C41.8393 121.993 41.8192 122.24 41.7706 122.522C41.9538 122.743 42.0947 122.946 42.1933 123.134C42.2918 123.321 42.3713 123.528 42.4317 123.753L42.675 124.661C42.6992 124.751 42.6662 124.809 42.576 124.833L41.9096 125.011C41.8709 125.022 41.8353 125.017 41.8026 124.999C41.7635 124.981 41.7388 124.954 41.7284 124.915L41.5291 124.171C41.5188 124.133 41.5058 124.084 41.4903 124.026C41.473 123.962 41.4569 123.914 41.4418 123.884C41.3368 124.085 41.2063 124.254 41.0501 124.393C40.8875 124.533 40.7032 124.631 40.4972 124.686L40.2074 124.763ZM37.3437 124.972L37.0978 124.054L36.1802 124.3L36.4261 125.218L37.3437 124.972ZM36.9632 123.552L36.7173 122.634L35.7997 122.88L36.0456 123.798L36.9632 123.552ZM40.7068 120.562C40.6166 120.586 40.5595 120.553 40.5353 120.463L40.38 119.883C40.3334 119.709 40.2326 119.578 40.0774 119.488C39.9223 119.398 39.761 119.376 39.5936 119.421L34.706 120.731L34.4912 119.929L39.3788 118.619C39.5977 118.561 39.815 118.547 40.0306 118.579C40.2398 118.613 40.4342 118.681 40.6138 118.785C40.7934 118.889 40.951 119.026 41.0865 119.197C41.2138 119.363 41.3068 119.555 41.3655 119.774L41.4819 120.209C41.5061 120.299 41.4731 120.356 41.3829 120.38L40.7068 120.562ZM39.9369 114.984C40.0271 114.96 40.0842 114.993 40.1084 115.083L40.199 115.421C40.2559 115.634 40.2708 115.844 40.2436 116.051C40.2099 116.261 40.1412 116.455 40.0375 116.635C39.9338 116.814 39.7998 116.971 39.6355 117.105C39.463 117.234 39.2705 117.327 39.058 117.384L34.1608 118.696L33.9485 117.904L38.8361 116.594C39.0035 116.549 39.132 116.449 39.2216 116.294C39.3112 116.139 39.3335 115.978 39.2886 115.81L39.1618 115.337C39.1515 115.298 39.1589 115.262 39.1842 115.227C39.2031 115.195 39.2318 115.173 39.2705 115.163L39.9369 114.984ZM37.0003 109.512C37.2064 109.456 37.414 109.446 37.6232 109.479C37.8242 109.508 38.0104 109.572 38.1819 109.671C38.3534 109.77 38.506 109.902 38.6397 110.066C38.7653 110.226 38.8557 110.409 38.9109 110.615L40.1094 115.087C40.1197 115.126 40.1155 115.161 40.0966 115.194C40.0713 115.228 40.0394 115.251 40.0007 115.261L39.3342 115.44C39.2441 115.464 39.1869 115.431 39.1628 115.341L38.9971 114.722L37.5752 113.975L33.2092 115.145L32.9944 114.343L36.153 113.497C36.2045 113.483 36.2601 113.472 36.3198 113.462C36.373 113.455 36.4239 113.452 36.4724 113.453C36.5274 113.452 36.58 113.455 36.6302 113.462C36.6221 113.457 36.6057 113.448 36.5812 113.434C36.5568 113.42 36.529 113.406 36.4981 113.394C36.4654 113.375 36.4369 113.359 36.4124 113.345C36.3879 113.33 36.3715 113.321 36.3634 113.316C36.1395 113.176 35.9514 113.002 35.7991 112.794C35.6451 112.58 35.5345 112.348 35.4672 112.097L35.3067 111.498C35.2532 111.298 35.2418 111.101 35.2725 110.906C35.2967 110.714 35.356 110.536 35.4502 110.372C35.5445 110.209 35.6691 110.069 35.824 109.951C35.9771 109.827 36.1535 109.739 36.3532 109.685L37.0003 109.512ZM37.9281 110.733C37.885 110.572 37.794 110.452 37.6552 110.371C37.5082 110.287 37.3542 110.266 37.1933 110.309L36.6234 110.462C36.4559 110.507 36.3307 110.606 36.2475 110.759C36.1627 110.906 36.1427 111.063 36.1876 111.231L36.3765 111.936C36.4783 112.316 36.7063 112.6 37.0604 112.788L38.715 113.67L37.9281 110.733Z" fill="#183B4C"/>
<path d="M39.0486 104.367C39.1124 104.606 39.1278 104.843 39.0946 105.08C39.0596 105.31 38.9856 105.523 38.8725 105.719C38.7593 105.915 38.6086 106.087 38.4202 106.234C38.2383 106.379 38.0283 106.484 37.79 106.548L35.4235 107.182L35.3407 106.873L37.6299 106.259C37.8231 106.207 37.9971 106.123 38.152 106.005C38.3116 105.88 38.4385 105.735 38.5328 105.572C38.6271 105.409 38.6896 105.23 38.7202 105.035C38.7509 104.841 38.7395 104.644 38.686 104.444L38.2486 102.812C38.2037 102.644 38.1292 102.495 38.0252 102.364C37.9194 102.227 37.797 102.118 37.6582 102.038C37.5194 101.958 37.3641 101.906 37.1923 101.883C37.027 101.859 36.8606 101.869 36.6931 101.914L34.0272 102.628L33.947 102.328L36.6709 101.599C36.8834 101.542 37.0942 101.53 37.3034 101.564C37.5108 101.591 37.7012 101.657 37.8743 101.763C38.0458 101.862 38.1952 101.994 38.3225 102.16C38.4545 102.318 38.5482 102.5 38.6034 102.706L39.0486 104.367ZM34.107 105.205L33.9569 104.645L34.5171 104.495L34.6672 105.055L34.107 105.205ZM35.7306 98.7467C35.7772 98.9205 35.789 99.0934 35.7661 99.2652C35.7366 99.4387 35.6827 99.5981 35.6043 99.7433C35.5195 99.8903 35.4093 100.02 35.2737 100.132C35.1364 100.238 34.9808 100.314 34.8069 100.361L29.9484 101.663L29.8681 101.363L34.7364 100.059C34.8587 100.026 34.9686 99.9724 35.066 99.898C35.1616 99.8171 35.241 99.7268 35.304 99.6271C35.3588 99.5227 35.3973 99.4088 35.4195 99.2856C35.4335 99.1576 35.4242 99.0324 35.3914 98.9101L35.2568 98.4078C35.2464 98.3691 35.2539 98.3326 35.2792 98.2982C35.298 98.2656 35.3268 98.2441 35.3654 98.2337L35.4427 98.213C35.5328 98.1889 35.59 98.2219 35.6142 98.312L35.7306 98.7467ZM37.2963 97.751L36.7457 97.8985L36.5956 97.3383L37.1461 97.1908L37.2963 97.751ZM35.6151 98.3154C35.6392 98.4056 35.6062 98.4627 35.5161 98.4869L35.4388 98.5076C35.4002 98.5179 35.3613 98.5145 35.3222 98.4974C35.2895 98.4786 35.268 98.4498 35.2577 98.4112L35.061 97.6771C35.0264 97.5483 34.972 97.4352 34.8976 97.3378C34.8167 97.2421 34.7273 97.166 34.6293 97.1095C34.5232 97.0482 34.4093 97.0097 34.2878 96.9939C34.1645 96.9717 34.0417 96.977 33.9193 97.0098L32.3449 97.4317L32.2647 97.1323L33.8391 96.7104C34.013 96.6638 34.1858 96.652 34.3576 96.675C34.523 96.6997 34.6791 96.7545 34.8261 96.8393C34.9666 96.9259 35.093 97.037 35.2053 97.1725C35.3094 97.3034 35.3847 97.4557 35.4313 97.6296L35.6151 98.3154ZM34.3379 93.5492C34.3844 93.7231 34.3963 93.8959 34.3733 94.0677C34.3439 94.2412 34.2899 94.4006 34.2115 94.5459C34.1267 94.6928 34.0165 94.8224 33.8809 94.9347C33.7436 95.0405 33.588 95.1167 33.4142 95.1633L28.5556 96.4653L28.4753 96.1658L33.3436 94.8613C33.4659 94.8285 33.5758 94.7749 33.6732 94.7005C33.7689 94.6196 33.8482 94.5293 33.9112 94.4296C33.966 94.3252 34.0046 94.2114 34.0267 94.0881C34.0408 93.9601 34.0314 93.8349 33.9986 93.7126L33.864 93.2103C33.8536 93.1717 33.8611 93.1352 33.8864 93.1008C33.9053 93.0681 33.934 93.0466 33.9726 93.0362L34.0499 93.0155C34.1401 92.9914 34.1972 93.0244 34.2214 93.1145L34.3379 93.5492ZM34.2223 93.1179C34.2464 93.2081 34.2134 93.2652 34.1233 93.2894L34.0267 93.3153C33.943 93.3377 33.8891 93.3039 33.8649 93.2137L33.751 92.7887C33.6872 92.5504 33.557 92.361 33.3606 92.2204C33.1642 92.0798 32.9472 92.0171 32.7098 92.0324L31.3069 92.1288L31.275 91.8165L32.4453 91.741C32.5003 91.74 32.5503 91.7335 32.5954 91.7214C32.6662 91.7025 32.7456 91.6639 32.8336 91.6058C32.9151 91.5495 32.9897 91.4674 33.0574 91.3595C33.1252 91.2516 33.1692 91.1328 33.1897 91.0031C33.2102 90.8734 33.2023 90.7409 33.166 90.6057L33.0392 90.1324C33.015 90.0423 33.0448 89.986 33.1285 89.9635L33.2251 89.9376C33.3153 89.9135 33.3724 89.9465 33.3966 90.0366L33.526 90.5196C33.5864 90.745 33.583 90.9771 33.5159 91.2159C33.4423 91.4565 33.3062 91.631 33.1075 91.7395C33.3545 91.8113 33.5674 91.9234 33.7463 92.0756C33.9187 92.2296 34.0351 92.4192 34.0955 92.6446L34.2223 93.1179ZM35.1769 92.0442L35.0268 91.484L35.587 91.3339L35.7371 91.8941L35.1769 92.0442ZM35.3049 90.281L35.4524 90.8316L34.8922 90.9817L34.7446 90.4312L35.3049 90.281ZM33.0383 90.1292L32.6552 88.6996C32.4577 88.014 32.0701 87.4691 31.4925 87.0649L30.2334 86.191C30.199 86.1657 30.1614 86.1413 30.1206 86.1177C30.078 86.0877 30.0346 86.0545 29.9903 86.018L29.9158 88.7918C29.9167 88.8468 29.924 88.9 29.9379 88.9516C29.9465 88.9838 29.9659 89.0303 29.996 89.0913C30.018 89.1475 30.0618 89.2082 30.1276 89.2734C30.1917 89.3322 30.2669 89.381 30.3533 89.42C30.4379 89.4525 30.5255 89.4705 30.6161 89.4738L31.2545 89.4994L31.249 89.7494L30.5404 89.7322C30.3317 89.726 30.1414 89.6597 29.9695 89.5332C29.7958 89.4003 29.6805 89.2276 29.6236 89.0151C29.5977 88.9185 29.5864 88.8249 29.5897 88.7343L29.7106 84.8196L29.9824 84.8295L29.9642 85.1864C29.9613 85.3045 29.9685 85.3958 29.9858 85.4602C30.022 85.5954 30.0958 85.7033 30.2071 85.7839C30.312 85.8662 30.4577 85.9721 30.6442 86.1016L31.9033 86.9755C32.175 87.1649 32.4044 87.3899 32.5915 87.6504C32.7704 87.9061 32.9022 88.1917 32.9868 88.5072L33.3957 90.0334C33.4199 90.1235 33.3869 90.1807 33.2967 90.2049L33.2001 90.2307C33.1164 90.2532 33.0625 90.2193 33.0383 90.1292ZM27.6678 89.4046L28.228 89.2545L28.3755 89.805L27.8153 89.9552L27.6678 89.4046Z" fill="black"/>
<defs>
<linearGradient id="paint0_linear_5_44" x1="71" y1="23" x2="133.996" y2="224.694" gradientUnits="userSpaceOnUse">
<stop stop-color="#ABB6BC" stop-opacity="0"/>
<stop offset="0.525146" stop-color="#AAB0B4"/>
<stop offset="1" stop-color="#ABB6BC" stop-opacity="0"/>
</linearGradient>
</defs>
</svg>
